#!OML:ASF H:\GeneralSubjects\Female5\Project 1\Capture day 1\Session 1\Female5.ASF
:FULLY-SPECIFIED
:DEGREES
583
root 6.23727 15.9232 4.03012 160.492 -78.1382 -167.038
lowerback 18.7392 2.42529 1.46432
upperback -5.65596 4.00488 2.38217
thorax -17.2786 1.79158 0.610537
lowerneck -14.4294 -5.14177 -3.26182
upperneck 33.3106 -8.30172 1.09833
head 13.9232 -4.30647 -0.437003
rclavicle -4.27387e-015 5.96354e-015
rhumerus -40.1906 2.2464 -51.2213
rradius 80.1813
rwrist 13.4774
rhand -33.5914 -1.54684
rfingers 7.12502
rthumb -6.78514 -31.4181
lclavicle -4.27387e-015 5.96354e-015
lhumerus -14.4298 1.17149 39.0481
lradius 70.3225
lwrist -4.89284
lhand -24.6962 24.9993
lfingers 7.12502
lthumb 1.80494 -305.029
rfemur -63.2422 6.09984 -8.17898
rtibia 17.5173
rfoot -3.52984 -49.8702
rtoes 19.5708
lfemur 6.20836 -15.7031 -36.8137
ltibia 11.9625
lfoot -31.5569 11.1263
ltoes -44.3513
584
root 6.22291 15.9217 4.03775 160.57 -78.3308 -167.205
lowerback 18.6788 2.42668 1.44349
upperback -5.72665 4.00622 2.41587
thorax -17.3335 1.79609 0.662991
lowerneck -14.2806 -5.28235 -3.43295
upperneck 33.4686 -8.50636 1.11053
head 13.9769 -4.42351 -0.437429
rclavicle 7.55382e-015 -1.98785e-015
rhumerus -40.6574 2.33922 -51.4843
rradius 80.1515
rwrist 13.6355
rhand -33.6615 -1.45575
rfingers 7.12502
rthumb -6.85282 -31.3248
lclavicle 7.55382e-015 -1.98785e-015
lhumerus -14.09 1.15191 38.6464
lradius 71.4083
lwrist -4.54012
lhand -24.5574 25.0256
lfingers 7.12502
lthumb 1.93901 -305.003
rfemur -64.3264 3.08215 -1.96281
rtibia 24.3494
rfoot 13.0686 -45.447
rtoes 8.05921
lfemur 6.47984 -15.7888 -37.0353
ltibia 11.7989
lfoot -31.5999 10.5931
ltoes -43.4698
585
root 6.20906 15.92 4.04403 160.679 -78.4738 -167.432
lowerback 18.6643 2.45387 1.39202
upperback -5.79008 4.03814 2.46231
thorax -17.4126 1.81814 0.73578
lowerneck -14.1386 -5.3882 -3.55772
upperneck 33.528 -8.66715 1.15207
head 13.9866 -4.50967 -0.423805
rclavicle 2.05742e-014 1.23246e-014
rhumerus -41.231 2.47364 -51.7157
rradius 80.1965
rwrist 13.7288
rhand -33.4647 -1.4101
rfingers 7.12502
rthumb -6.66282 -31.2853
lclavicle 2.05742e-014 1.23246e-014
lhumerus -13.8333 1.10199 38.2198
lradius 72.6176
lwrist -4.19181
lhand -24.4351 25.3792
lfingers 7.12502
lthumb 2.05719 -304.651
rfemur -65.3833 1.1628 2.78608
rtibia 31.3846
rfoot 23.5773 -40.4441
rtoes -0.342057
lfemur 6.73255 -15.7248 -37.2085
ltibia 11.6538
lfoot -31.5471 10.1988
ltoes -42.8983
586
root 6.19364 15.9209 4.04919 160.749 -78.5977 -167.665
lowerback 18.6719 2.48219 1.31805
upperback -5.84674 4.06631 2.50725
thorax -17.4991 1.84091 0.820009
lowerneck -13.9673 -5.46913 -3.65199
upperneck 33.6083 -8.81275 1.21061
head 13.9982 -4.58502 -0.405615
rclavicle 1.10325e-014 6.52014e-014
rhumerus -41.825 2.61457 -51.9508
rradius 80.2617
rwrist 13.7021
rhand -33.1646 -1.32997
rfingers 7.12502
rthumb -6.37316 -31.2141
lclavicle 1.10325e-014 6.52014e-014
lhumerus -13.5841 1.07735 37.755
lradius 73.8345
lwrist -3.93791
lhand -23.9858 25.687
lfingers 7.12502
lthumb 2.49109 -304.348
rfemur -66.1585 -0.0729668 6.61695
rtibia 38.583
rfoot 27.9373 -37.0145
rtoes -4.19852
lfemur 6.97634 -15.5499 -37.3406
ltibia 11.5665
lfoot -31.2955 10.5271
ltoes -43.6075
587
root 6.17569 15.9199 4.05064 161.158 -78.8382 -168.239
lowerback 18.69 2.49735 1.09793
upperback -5.9247 4.03758 2.53124
thorax -17.6271 1.8531 0.981035
lowerneck -13.7966 -5.57861 -3.75621
upperneck 33.7528 -8.99922 1.23774
head 14.0391 -4.68511 -0.407051
rclavicle 7.7526e-015 -1.59028e-015
rhumerus -42.2998 2.75601 -52.2027
rradius 80.1657
rwrist 13.5429
rhand -33.1363 -1.18903
rfingers 7.12502
rthumb -6.34584 -31.074
lclavicle 7.7526e-015 -1.59028e-015
lhumerus -13.2854 1.17443 37.4123
lradius 74.9497
lwrist -3.80556
lhand -23.3185 25.6181
lfingers 7.12502
lthumb 3.13552 -304.425
rfemur -66.7347 -0.997215 9.67793
rtibia 46.0171
rfoot 28.5429 -35.8293
rtoes -3.16823
lfemur 7.13658 -15.4016 -37.5596
ltibia 11.6141
lfoot -30.9732 10.9331
ltoes -44.5849
588
root 6.15085 15.9155 4.04563 162.089 -79.1494 -169.375
lowerback 18.6373 2.51779 0.737382
upperback -5.95536 3.97349 2.53324
thorax -17.658 1.86574 1.21041
lowerneck -13.6661 -5.70909 -3.84224
upperneck 33.8109 -9.18781 1.21857
head 14.0466 -4.7866 -0.428693
rclavicle -9.34288e-015 -9.93923e-015
rhumerus -42.544 2.80664 -52.4571
rradius 79.8696
rwrist 13.4688
rhand -33.1763 -1.14636
rfingers 7.12502
rthumb -6.38442 -31.0301
lclavicle -9.34288e-015 -9.93923e-015
lhumerus -12.9897 1.37041 37.1513
lradius 76.0607
lwrist -3.74287
lhand -22.542 25.2349
lfingers 7.12502
lthumb 3.8854 -304.821
rfemur -67.0811 -1.70247 12.173
rtibia 53.6493
rfoot 28.5427 -35.7814
rtoes -1.58092
lfemur 7.28549 -15.1178 -37.8673
ltibia 11.7585
lfoot -30.6109 10.7119
ltoes -44.7108
